<svg width="1410" height="379" viewBox="0 0 1410 379" fill="none" xmlns="http://www.w3.org/2000/svg">
<g clip-path="url(#clip0_2_1137)">
<path fill-rule="evenodd" clip-rule="evenodd" d="M804.805 942.007V971H805.805V942.007H880.428V971H881.428V942.007H956.051V971H957.051V942.007H1031.67V971H1032.67V942.007H1107.3V971H1108.3V942.007H1182.92V971H1183.92V942.007H1258.54V971H1259.54V942.007H1334.17V971H1335.17V942.007H1409.79V971H1410.79V942.007H1485.41V971H1486.41V942.007L1561.03 942.007V971H1562.03V942.007H1636.66V971H1637.66V942.007L1712.28 942.007V971H1713.28V942.007H1777.83V941.007H1713.28V866.935L1777.83 866.935V865.935L1713.28 865.935V791.862L1777.83 791.862V790.862L1713.28 790.862V716.79L1777.83 716.79V715.79L1713.28 715.79V641.718L1777.83 641.718V640.718L1713.28 640.718V566.645L1777.83 566.645V565.645L1713.28 565.645V491.573L1777.83 491.573V490.573L1713.28 490.573V416.5L1777.83 416.5V415.5L1713.28 415.5V341.428H1777.83V340.428H1713.28V266.355H1777.83V265.355H1713.28V191.283H1777.83V190.283H1713.28V116.21L1777.83 116.21V115.21L1713.28 115.21V41.1378L1777.83 41.1378V40.1378L1713.28 40.1378V-33.9346L1777.83 -33.9346V-34.9346L1713.28 -34.9346V-109.007L1777.83 -109.007V-110.007L1713.28 -110.007V-139H1712.28V-110.007L1637.66 -110.007V-139H1636.66V-110.007L1562.03 -110.007V-139H1561.03V-110.007L1486.41 -110.007V-139H1485.41V-110.007L1410.79 -110.007V-139H1409.79V-110.007L1335.17 -110.007V-139H1334.17V-110.007L1259.54 -110.007V-139H1258.54V-110.007L1183.92 -110.007V-139H1182.92V-110.007L1108.3 -110.007V-139H1107.3V-110.007L1032.67 -110.007V-139H1031.67V-110.007L957.051 -110.007V-139H956.051V-110.007L881.428 -110.007V-139H880.428V-110.007L805.805 -110.007V-139H804.805V-110.007L737 -110.007V-109.007L804.805 -109.007L804.805 -34.9348L737 -34.9348V-33.9348L804.805 -33.9348V40.1376L737 40.1376V41.1376L804.805 41.1376L804.805 115.21L737 115.21V116.21L804.805 116.21V190.283L737 190.283V191.283L804.805 191.283L804.805 265.355L737 265.355V266.355L804.805 266.355V340.428L737 340.428V341.428L804.805 341.428L804.805 415.5H737V416.5H804.805L804.805 490.572H737V491.572H804.805V565.645H737V566.645H804.805L804.805 640.717H737V641.717H804.805V715.79H737V716.79H804.805L804.805 790.862H737V791.862H804.805V865.935H737V866.935H804.805L804.805 941.007H737V942.007H804.805ZM1712.28 -109.007L1637.66 -109.007V-34.9346L1712.28 -34.9346V-109.007ZM1712.28 -33.9346L1637.66 -33.9346V40.1378L1712.28 40.1378V-33.9346ZM1712.28 41.1378L1637.66 41.1378V115.21L1712.28 115.21V41.1378ZM1712.28 116.21L1637.66 116.21V190.283L1712.28 190.283V116.21ZM1712.28 191.283L1637.66 191.283V265.355L1712.28 265.355V191.283ZM1712.28 266.355L1637.66 266.355V340.428L1712.28 340.428V266.355ZM1712.28 341.428L1637.66 341.428V415.5L1712.28 415.5V341.428ZM1712.28 416.5L1637.66 416.5V490.573L1712.28 490.573V416.5ZM1712.28 491.573L1637.66 491.573V565.645L1712.28 565.645V491.573ZM1712.28 566.645L1637.66 566.645V640.718L1712.28 640.718V566.645ZM1712.28 641.718L1637.66 641.718V715.79L1712.28 715.79V641.718ZM1712.28 716.79L1637.66 716.79V790.862L1712.28 790.862V716.79ZM1712.28 791.862L1637.66 791.862V865.935L1712.28 865.935V791.862ZM1712.28 866.935L1637.66 866.935V941.007L1712.28 941.007V866.935ZM1636.66 866.935V941.007H1562.03V866.935H1636.66ZM1636.66 791.862V865.935H1562.03V791.862H1636.66ZM1636.66 716.79V790.862H1562.03V716.79H1636.66ZM1636.66 641.718V715.79H1562.03V641.718H1636.66ZM1636.66 566.645V640.718H1562.03V566.645H1636.66ZM1636.66 491.573V565.645H1562.03V491.573H1636.66ZM1636.66 416.5V490.573H1562.03V416.5H1636.66ZM1636.66 341.428V415.5H1562.03V341.428H1636.66ZM1636.66 266.355V340.428H1562.03V266.355H1636.66ZM1636.66 191.283V265.355H1562.03V191.283H1636.66ZM1636.66 116.21V190.283H1562.03V116.21L1636.66 116.21ZM1636.66 41.1378V115.21L1562.03 115.21V41.1378L1636.66 41.1378ZM1636.66 -33.9346V40.1378L1562.03 40.1378V-33.9346L1636.66 -33.9346ZM1636.66 -109.007V-34.9346L1562.03 -34.9346V-109.007L1636.66 -109.007ZM1561.03 -109.007L1486.41 -109.007V-34.9346L1561.03 -34.9346V-109.007ZM1561.03 -33.9346L1486.41 -33.9346V40.1378L1561.03 40.1378V-33.9346ZM1561.03 41.1378L1486.41 41.1378V115.21L1561.03 115.21V41.1378ZM1561.03 116.21L1486.41 116.21V190.283L1561.03 190.283V116.21ZM1561.03 191.283L1486.41 191.283V265.355L1561.03 265.355V191.283ZM1561.03 266.355L1486.41 266.355V340.428L1561.03 340.428V266.355ZM1561.03 341.428L1486.41 341.428V415.5L1561.03 415.5V341.428ZM1561.03 416.5L1486.41 416.5V490.573L1561.03 490.573V416.5ZM1561.03 491.573L1486.41 491.573V565.645L1561.03 565.645V491.573ZM1561.03 566.645L1486.41 566.645V640.718L1561.03 640.718V566.645ZM1561.03 641.718L1486.41 641.718V715.79L1561.03 715.79V641.718ZM1561.03 716.79L1486.41 716.79V790.862L1561.03 790.862V716.79ZM1561.03 791.862L1486.41 791.862V865.935L1561.03 865.935V791.862ZM1561.03 866.935L1486.41 866.935V941.007L1561.03 941.007V866.935ZM1485.41 866.935V941.007H1410.79V866.935H1485.41ZM1485.41 791.862V865.935H1410.79V791.862H1485.41ZM1485.41 716.79V790.862H1410.79V716.79H1485.41ZM1485.41 641.718V715.79H1410.79V641.718H1485.41ZM1485.41 566.645V640.718H1410.79V566.645H1485.41ZM1485.41 491.573V565.645H1410.79V491.573H1485.41ZM1485.41 416.5V490.573H1410.79V416.5H1485.41ZM1485.41 341.428V415.5H1410.79V341.428H1485.41ZM1485.41 266.355V340.428H1410.79V266.355H1485.41ZM1485.41 191.283V265.355H1410.79V191.283H1485.41ZM1485.41 116.21V190.283H1410.79V116.21L1485.41 116.21ZM1485.41 41.1378V115.21L1410.79 115.21V41.1377L1485.41 41.1378ZM1485.41 -33.9346V40.1378L1410.79 40.1377V-33.9346L1485.41 -33.9346ZM1485.41 -109.007V-34.9346L1410.79 -34.9346V-109.007L1485.41 -109.007ZM1409.79 -109.007L1335.17 -109.007V-34.9347L1409.79 -34.9346V-109.007ZM1409.79 -33.9346L1335.17 -33.9347V40.1377L1409.79 40.1377V-33.9346ZM1409.79 41.1377L1335.17 41.1377V115.21L1409.79 115.21V41.1377ZM1409.79 116.21L1335.17 116.21V190.283L1409.79 190.283V116.21ZM1409.79 191.283L1335.17 191.283V265.355L1409.79 265.355V191.283ZM1409.79 266.355L1335.17 266.355V340.428L1409.79 340.428V266.355ZM1409.79 341.428L1335.17 341.428V415.5L1409.79 415.5V341.428ZM1409.79 416.5L1335.17 416.5V490.572L1409.79 490.573V416.5ZM1409.79 491.573L1335.17 491.572V565.645L1409.79 565.645V491.573ZM1409.79 566.645L1335.17 566.645V640.717L1409.79 640.718V566.645ZM1409.79 641.718L1335.17 641.717V715.79L1409.79 715.79V641.718ZM1409.79 716.79L1335.17 716.79V790.862L1409.79 790.862V716.79ZM1409.79 791.862L1335.17 791.862V865.935L1409.79 865.935V791.862ZM1409.79 866.935L1335.17 866.935V941.007H1409.79V866.935ZM1334.17 866.935V941.007H1259.54V866.935H1334.17ZM1334.17 791.862V865.935H1259.54V791.862H1334.17ZM1334.17 716.79V790.862H1259.54V716.79H1334.17ZM1334.17 641.717V715.79H1259.54V641.717H1334.17ZM1334.17 566.645V640.717H1259.54V566.645H1334.17ZM1334.17 491.572V565.645H1259.54V491.572H1334.17ZM1334.17 416.5V490.572H1259.54V416.5H1334.17ZM1334.17 341.428V415.5H1259.54V341.428H1334.17ZM1334.17 266.355V340.428H1259.54V266.355H1334.17ZM1334.17 191.283V265.355H1259.54V191.283H1334.17ZM1334.17 116.21V190.283H1259.54V116.21L1334.17 116.21ZM1334.17 41.1377V115.21L1259.54 115.21V41.1377L1334.17 41.1377ZM1334.17 -33.9347V40.1377L1259.54 40.1377V-33.9347L1334.17 -33.9347ZM1334.17 -109.007V-34.9347L1259.54 -34.9347V-109.007L1334.17 -109.007ZM1258.54 -109.007L1183.92 -109.007V-34.9347L1258.54 -34.9347V-109.007ZM1258.54 -33.9347L1183.92 -33.9347V40.1377L1258.54 40.1377V-33.9347ZM1258.54 41.1377L1183.92 41.1377V115.21L1258.54 115.21V41.1377ZM1258.54 116.21L1183.92 116.21L1183.92 190.283L1258.54 190.283V116.21ZM1258.54 191.283L1183.92 191.283V265.355L1258.54 265.355V191.283ZM1258.54 266.355L1183.92 266.355V340.428L1258.54 340.428V266.355ZM1258.54 341.428L1183.92 341.428V415.5L1258.54 415.5V341.428ZM1258.54 416.5L1183.92 416.5V490.572L1258.54 490.572V416.5ZM1258.54 491.572L1183.92 491.572V565.645L1258.54 565.645V491.572ZM1258.54 566.645L1183.92 566.645V640.717L1258.54 640.717V566.645ZM1258.54 641.717L1183.92 641.717L1183.92 715.79L1258.54 715.79V641.717ZM1258.54 716.79L1183.92 716.79V790.862L1258.54 790.862V716.79ZM1258.54 791.862L1183.92 791.862V865.935L1258.54 865.935V791.862ZM1258.54 866.935L1183.92 866.935V941.007H1258.54V866.935ZM1182.92 866.935V941.007H1108.3V866.935H1182.92ZM1182.92 791.862V865.935H1108.3V791.862H1182.92ZM1182.92 716.79V790.862H1108.3V716.79H1182.92ZM1182.92 641.717L1182.92 715.79H1108.3L1108.3 641.717H1182.92ZM1182.92 566.645V640.717H1108.3V566.645H1182.92ZM1182.92 491.572V565.645H1108.3V491.572H1182.92ZM1182.92 416.5V490.572H1108.3V416.5H1182.92ZM1182.92 341.428V415.5H1108.3V341.428H1182.92ZM1182.92 266.355V340.428H1108.3V266.355H1182.92ZM1182.92 191.283V265.355H1108.3V191.283H1182.92ZM1182.92 116.21L1182.92 190.283H1108.3L1108.3 116.21L1182.92 116.21ZM1182.92 41.1377V115.21L1108.3 115.21V41.1377L1182.92 41.1377ZM1182.92 -33.9347V40.1377L1108.3 40.1377V-33.9347L1182.92 -33.9347ZM1182.92 -109.007V-34.9347L1108.3 -34.9347V-109.007L1182.92 -109.007ZM1107.3 -109.007L1032.67 -109.007V-34.9347L1107.3 -34.9347V-109.007ZM1107.3 -33.9347L1032.67 -33.9347V40.1377L1107.3 40.1377V-33.9347ZM1107.3 41.1377L1032.67 41.1377V115.21L1107.3 115.21V41.1377ZM1107.3 116.21L1032.67 116.21L1032.67 190.283L1107.3 190.283L1107.3 116.21ZM1107.3 191.283L1032.67 191.283V265.355L1107.3 265.355V191.283ZM1107.3 266.355L1032.67 266.355V340.428L1107.3 340.428V266.355ZM1107.3 341.428L1032.67 341.428V415.5H1107.3V341.428ZM1107.3 416.5H1032.67V490.572H1107.3V416.5ZM1107.3 491.572H1032.67V565.645H1107.3V491.572ZM1107.3 566.645H1032.67V640.717H1107.3V566.645ZM1107.3 641.717H1032.67L1032.67 715.79H1107.3L1107.3 641.717ZM1107.3 716.79H1032.67V790.862H1107.3V716.79ZM1107.3 791.862H1032.67V865.935H1107.3V791.862ZM1107.3 866.935H1032.67V941.007H1107.3V866.935ZM1031.67 866.935V941.007H957.051V866.935H1031.67ZM1031.67 791.862V865.935H957.051L957.051 791.862H1031.67ZM1031.67 716.79V790.862H957.051V716.79H1031.67ZM1031.67 641.717L1031.67 715.79H957.051V641.717H1031.67ZM1031.67 566.645V640.717H957.051V566.645H1031.67ZM1031.67 491.572V565.645H957.051L957.051 491.572H1031.67ZM1031.67 416.5V490.572H957.051V416.5H1031.67ZM1031.67 341.428V415.5H957.051V341.428H1031.67ZM1031.67 266.355V340.428H957.051L957.051 266.355H1031.67ZM1031.67 191.283V265.355H957.051V191.283H1031.67ZM1031.67 116.21L1031.67 190.283H957.051V116.21L1031.67 116.21ZM1031.67 41.1377V115.21L957.051 115.21V41.1376L1031.67 41.1377ZM1031.67 -33.9347V40.1377L957.051 40.1376L957.051 -33.9348L1031.67 -33.9347ZM1031.67 -109.007V-34.9347L957.051 -34.9348V-109.007L1031.67 -109.007ZM956.051 -109.007L881.428 -109.007V-34.9348L956.051 -34.9348V-109.007ZM956.051 -33.9348L881.428 -33.9348L881.428 40.1376L956.051 40.1376L956.051 -33.9348ZM956.051 41.1376L881.428 41.1376V115.21L956.051 115.21V41.1376ZM956.051 116.21L881.428 116.21V190.283H956.051V116.21ZM956.051 191.283H881.428V265.355H956.051V191.283ZM956.051 266.355H881.428L881.428 340.428H956.051L956.051 266.355ZM956.051 341.428H881.428V415.5H956.051V341.428ZM956.051 416.5H881.428V490.572H956.051V416.5ZM956.051 491.572H881.428L881.428 565.645H956.051L956.051 491.572ZM956.051 566.645H881.428V640.717H956.051V566.645ZM956.051 641.717H881.428V715.79H956.051V641.717ZM956.051 716.79H881.428V790.862H956.051V716.79ZM956.051 791.862H881.428L881.428 865.935H956.051L956.051 791.862ZM956.051 866.935H881.428V941.007H956.051V866.935ZM880.428 866.935V941.007H805.805L805.805 866.935H880.428ZM880.428 791.862L880.428 865.935H805.805V791.862H880.428ZM880.428 716.79V790.862H805.805L805.805 716.79H880.428ZM880.428 641.717V715.79H805.805V641.717H880.428ZM880.428 566.645V640.717H805.805L805.805 566.645H880.428ZM880.428 491.572L880.428 565.645H805.805V491.572H880.428ZM880.428 416.5V490.572H805.805L805.805 416.5H880.428ZM880.428 341.428V415.5H805.805L805.805 341.428L880.428 341.428ZM880.428 266.355L880.428 340.428L805.805 340.428V266.355L880.428 266.355ZM880.428 191.283V265.355L805.805 265.355L805.805 191.283L880.428 191.283ZM880.428 116.21V190.283L805.805 190.283V116.21L880.428 116.21ZM880.428 41.1376V115.21L805.805 115.21L805.805 41.1376L880.428 41.1376ZM880.428 -33.9348L880.428 40.1376L805.805 40.1376V-33.9348L880.428 -33.9348ZM880.428 -109.007V-34.9348L805.805 -34.9348L805.805 -109.007L880.428 -109.007Z" fill="url(#paint0_radial_2_1137)"/>
<path fill-rule="evenodd" clip-rule="evenodd" d="M-362.195 942.007V971H-361.195V942.007H-286.572V971H-285.572V942.007H-210.949V971H-209.949V942.007H-135.326V971H-134.326V942.007H-59.7032V971H-58.7032V942.007H15.9198V971H16.9198V942.007H91.5428V971H92.5428V942.007H167.166V971H168.166V942.007H242.789V971H243.789V942.007H318.412V971H319.412V942.007L394.035 942.007V971H395.035V942.007H469.658V971H470.658V942.007L545.281 942.007V971H546.281V942.007H610.833V941.007H546.281L546.281 866.935L610.833 866.935V865.935L546.281 865.935V791.862L610.833 791.862V790.862L546.281 790.862V716.79L610.833 716.79V715.79L546.281 715.79V641.718L610.833 641.718V640.718L546.281 640.718V566.645L610.833 566.645V565.645L546.281 565.645V491.573L610.833 491.573V490.573L546.281 490.573V416.5L610.833 416.5V415.5L546.281 415.5V341.428H610.833V340.428H546.281V266.355H610.833V265.355H546.281V191.283H610.833V190.283H546.281V116.21L610.833 116.21V115.21L546.281 115.21V41.1378L610.833 41.1378V40.1378L546.281 40.1378V-33.9346L610.833 -33.9346V-34.9346L546.281 -34.9346V-109.007L610.833 -109.007V-110.007L546.281 -110.007V-139H545.281V-110.007L470.658 -110.007V-139H469.658V-110.007L395.035 -110.007V-139H394.035V-110.007L319.412 -110.007V-139H318.412V-110.007L243.789 -110.007V-139H242.789V-110.007L168.166 -110.007V-139H167.166V-110.007L92.5427 -110.007V-139H91.5427V-110.007L16.9197 -110.007V-139H15.9197V-110.007L-58.7033 -110.007V-139H-59.7033V-110.007L-134.326 -110.007V-139H-135.326V-110.007L-209.949 -110.007V-139H-210.949V-110.007L-285.572 -110.007V-139H-286.572V-110.007L-361.195 -110.007V-139H-362.195V-110.007L-430 -110.007V-109.007L-362.195 -109.007L-362.195 -34.9348L-430 -34.9348V-33.9348L-362.195 -33.9348V40.1376L-430 40.1376V41.1376L-362.195 41.1376L-362.195 115.21L-430 115.21V116.21L-362.195 116.21V190.283L-430 190.283V191.283L-362.195 191.283L-362.195 265.355L-430 265.355V266.355L-362.195 266.355V340.428L-430 340.428V341.428L-362.195 341.428L-362.195 415.5H-430V416.5H-362.195L-362.195 490.572H-430V491.572H-362.195L-362.195 565.645H-430V566.645H-362.195L-362.195 640.717H-430V641.717H-362.195V715.79H-430V716.79H-362.195L-362.195 790.862H-430V791.862H-362.195V865.935H-430V866.935H-362.195L-362.195 941.007H-430V942.007H-362.195ZM545.281 -109.007L470.658 -109.007V-34.9346L545.281 -34.9346V-109.007ZM545.281 -33.9346L470.658 -33.9346V40.1378L545.281 40.1378V-33.9346ZM545.281 41.1378L470.658 41.1378V115.21L545.281 115.21V41.1378ZM545.281 116.21L470.658 116.21V190.283L545.281 190.283V116.21ZM545.281 191.283L470.658 191.283V265.355L545.281 265.355V191.283ZM545.281 266.355L470.658 266.355V340.428L545.281 340.428V266.355ZM545.281 341.428L470.658 341.428V415.5L545.281 415.5V341.428ZM545.281 416.5L470.658 416.5V490.573L545.281 490.573V416.5ZM545.281 491.573L470.658 491.573V565.645L545.281 565.645V491.573ZM545.281 566.645L470.658 566.645V640.718L545.281 640.718V566.645ZM545.281 641.718L470.658 641.718V715.79L545.281 715.79V641.718ZM545.281 716.79L470.658 716.79V790.862L545.281 790.862V716.79ZM545.281 791.862L470.658 791.862V865.935L545.281 865.935V791.862ZM545.281 866.935L470.658 866.935L470.658 941.007L545.281 941.007L545.281 866.935ZM469.658 866.935L469.658 941.007H395.035L395.035 866.935H469.658ZM469.658 791.862V865.935H395.035V791.862H469.658ZM469.658 716.79V790.862H395.035V716.79H469.658ZM469.658 641.718V715.79H395.035V641.718H469.658ZM469.658 566.645V640.718H395.035V566.645H469.658ZM469.658 491.573V565.645H395.035V491.573H469.658ZM469.658 416.5V490.573H395.035V416.5H469.658ZM469.658 341.428V415.5H395.035V341.428H469.658ZM469.658 266.355V340.428H395.035V266.355H469.658ZM469.658 191.283V265.355H395.035V191.283H469.658ZM469.658 116.21V190.283H395.035V116.21L469.658 116.21ZM469.658 41.1378V115.21L395.035 115.21V41.1378L469.658 41.1378ZM469.658 -33.9346V40.1378L395.035 40.1378V-33.9346L469.658 -33.9346ZM469.658 -109.007V-34.9346L395.035 -34.9346V-109.007L469.658 -109.007ZM394.035 -109.007L319.412 -109.007V-34.9346L394.035 -34.9346V-109.007ZM394.035 -33.9346L319.412 -33.9346V40.1378L394.035 40.1378V-33.9346ZM394.035 41.1378L319.412 41.1378V115.21L394.035 115.21V41.1378ZM394.035 116.21L319.412 116.21V190.283L394.035 190.283V116.21ZM394.035 191.283L319.412 191.283V265.355L394.035 265.355V191.283ZM394.035 266.355L319.412 266.355V340.428L394.035 340.428V266.355ZM394.035 341.428L319.412 341.428V415.5L394.035 415.5V341.428ZM394.035 416.5L319.412 416.5V490.573L394.035 490.573V416.5ZM394.035 491.573L319.412 491.573V565.645L394.035 565.645V491.573ZM394.035 566.645L319.412 566.645V640.718L394.035 640.718V566.645ZM394.035 641.718L319.412 641.718V715.79L394.035 715.79V641.718ZM394.035 716.79L319.412 716.79V790.862L394.035 790.862V716.79ZM394.035 791.862L319.412 791.862V865.935L394.035 865.935V791.862ZM394.035 866.935L319.412 866.935L319.412 941.007L394.035 941.007L394.035 866.935ZM318.412 866.935L318.412 941.007H243.789L243.789 866.935H318.412ZM318.412 791.862V865.935H243.789V791.862H318.412ZM318.412 716.79V790.862H243.789V716.79H318.412ZM318.412 641.718V715.79H243.789V641.718H318.412ZM318.412 566.645V640.718H243.789V566.645H318.412ZM318.412 491.573V565.645H243.789V491.573H318.412ZM318.412 416.5V490.573H243.789V416.5H318.412ZM318.412 341.428V415.5H243.789V341.428H318.412ZM318.412 266.355V340.428H243.789V266.355H318.412ZM318.412 191.283V265.355H243.789V191.283H318.412ZM318.412 116.21V190.283H243.789V116.21L318.412 116.21ZM318.412 41.1378V115.21L243.789 115.21V41.1377L318.412 41.1378ZM318.412 -33.9346V40.1378L243.789 40.1377V-33.9346L318.412 -33.9346ZM318.412 -109.007V-34.9346L243.789 -34.9346V-109.007L318.412 -109.007ZM242.789 -109.007L168.166 -109.007V-34.9347L242.789 -34.9346V-109.007ZM242.789 -33.9346L168.166 -33.9347V40.1377L242.789 40.1377V-33.9346ZM242.789 41.1377L168.166 41.1377V115.21L242.789 115.21V41.1377ZM242.789 116.21L168.166 116.21V190.283L242.789 190.283V116.21ZM242.789 191.283L168.166 191.283V265.355L242.789 265.355V191.283ZM242.789 266.355L168.166 266.355V340.428L242.789 340.428V266.355ZM242.789 341.428L168.166 341.428V415.5L242.789 415.5V341.428ZM242.789 416.5L168.166 416.5V490.572L242.789 490.573V416.5ZM242.789 491.573L168.166 491.572V565.645L242.789 565.645V491.573ZM242.789 566.645L168.166 566.645V640.717L242.789 640.718V566.645ZM242.789 641.718L168.166 641.717V715.79L242.789 715.79V641.718ZM242.789 716.79L168.166 716.79V790.862L242.789 790.862V716.79ZM242.789 791.862L168.166 791.862V865.935L242.789 865.935V791.862ZM242.789 866.935L168.166 866.935L168.166 941.007H242.789L242.789 866.935ZM167.166 866.935L167.166 941.007H92.5428L92.5428 866.935H167.166ZM167.166 791.862V865.935H92.5428V791.862H167.166ZM167.166 716.79V790.862H92.5428V716.79H167.166ZM167.166 641.717V715.79H92.5428V641.717H167.166ZM167.166 566.645V640.717H92.5428V566.645H167.166ZM167.166 491.572V565.645H92.5428V491.572H167.166ZM167.166 416.5V490.572H92.5428V416.5H167.166ZM167.166 341.428V415.5H92.5427V341.428H167.166ZM167.166 266.355V340.428H92.5427V266.355H167.166ZM167.166 191.283V265.355H92.5427V191.283H167.166ZM167.166 116.21V190.283H92.5427V116.21L167.166 116.21ZM167.166 41.1377V115.21L92.5427 115.21V41.1377L167.166 41.1377ZM167.166 -33.9347V40.1377L92.5427 40.1377V-33.9347L167.166 -33.9347ZM167.166 -109.007V-34.9347L92.5427 -34.9347V-109.007L167.166 -109.007ZM91.5427 -109.007L16.9197 -109.007V-34.9347L91.5427 -34.9347V-109.007ZM91.5427 -33.9347L16.9197 -33.9347V40.1377L91.5427 40.1377V-33.9347ZM91.5427 41.1377L16.9197 41.1377V115.21L91.5427 115.21V41.1377ZM91.5427 116.21L16.9197 116.21L16.9197 190.283L91.5427 190.283V116.21ZM91.5427 191.283L16.9197 191.283V265.355L91.5427 265.355V191.283ZM91.5427 266.355L16.9197 266.355V340.428L91.5427 340.428V266.355ZM91.5427 341.428L16.9197 341.428L16.9197 415.5L91.5427 415.5V341.428ZM91.5428 416.5L16.9197 416.5V490.572L91.5428 490.572V416.5ZM91.5428 491.572L16.9197 491.572V565.645L91.5428 565.645V491.572ZM91.5428 566.645L16.9197 566.645V640.717L91.5428 640.717V566.645ZM91.5428 641.717L16.9197 641.717L16.9198 715.79L91.5428 715.79V641.717ZM91.5428 716.79L16.9198 716.79V790.862L91.5428 790.862V716.79ZM91.5428 791.862L16.9198 791.862V865.935L91.5428 865.935V791.862ZM91.5428 866.935L16.9198 866.935V941.007H91.5428L91.5428 866.935ZM15.9198 866.935V941.007H-58.7032V866.935H15.9198ZM15.9198 791.862V865.935H-58.7032V791.862H15.9198ZM15.9198 716.79V790.862H-58.7032V716.79H15.9198ZM15.9197 641.717L15.9198 715.79H-58.7032L-58.7033 641.717H15.9197ZM15.9197 566.645V640.717H-58.7033V566.645H15.9197ZM15.9197 491.572V565.645H-58.7033V491.572H15.9197ZM15.9197 416.5V490.572H-58.7033V416.5H15.9197ZM15.9197 341.428L15.9197 415.5H-58.7033L-58.7033 341.428H15.9197ZM15.9197 266.355V340.428H-58.7033V266.355H15.9197ZM15.9197 191.283V265.355H-58.7033V191.283H15.9197ZM15.9197 116.21L15.9197 190.283H-58.7033L-58.7033 116.21L15.9197 116.21ZM15.9197 41.1377V115.21L-58.7033 115.21V41.1377L15.9197 41.1377ZM15.9197 -33.9347V40.1377L-58.7033 40.1377V-33.9347L15.9197 -33.9347ZM15.9197 -109.007V-34.9347L-58.7033 -34.9347V-109.007L15.9197 -109.007ZM-59.7033 -109.007L-134.326 -109.007V-34.9347L-59.7033 -34.9347V-109.007ZM-59.7033 -33.9347L-134.326 -33.9347V40.1377L-59.7033 40.1377V-33.9347ZM-59.7033 41.1377L-134.326 41.1377V115.21L-59.7033 115.21V41.1377ZM-59.7033 116.21L-134.326 116.21L-134.326 190.283L-59.7033 190.283L-59.7033 116.21ZM-59.7033 191.283L-134.326 191.283V265.355L-59.7033 265.355V191.283ZM-59.7033 266.355L-134.326 266.355V340.428L-59.7033 340.428V266.355ZM-59.7033 341.428L-134.326 341.428L-134.326 415.5H-59.7033L-59.7033 341.428ZM-59.7033 416.5H-134.326V490.572H-59.7033V416.5ZM-59.7033 491.572H-134.326V565.645H-59.7033V491.572ZM-59.7033 566.645H-134.326V640.717H-59.7033V566.645ZM-59.7033 641.717H-134.326L-134.326 715.79H-59.7032L-59.7033 641.717ZM-59.7032 716.79H-134.326V790.862H-59.7032V716.79ZM-59.7032 791.862H-134.326V865.935H-59.7032V791.862ZM-59.7032 866.935H-134.326V941.007H-59.7032V866.935ZM-135.326 866.935V941.007H-209.949V866.935H-135.326ZM-135.326 791.862V865.935H-209.949L-209.949 791.862H-135.326ZM-135.326 716.79V790.862H-209.949V716.79H-135.326ZM-135.326 641.717L-135.326 715.79H-209.949V641.717H-135.326ZM-135.326 566.645V640.717H-209.949L-209.949 566.645H-135.326ZM-135.326 491.572V565.645H-209.949L-209.949 491.572H-135.326ZM-135.326 416.5V490.572H-209.949V416.5H-135.326ZM-135.326 341.428L-135.326 415.5H-209.949V341.428H-135.326ZM-135.326 266.355V340.428H-209.949L-209.949 266.355H-135.326ZM-135.326 191.283V265.355H-209.949V191.283H-135.326ZM-135.326 116.21L-135.326 190.283H-209.949L-209.949 116.21L-135.326 116.21ZM-135.326 41.1377V115.21L-209.949 115.21V41.1376L-135.326 41.1377ZM-135.326 -33.9347V40.1377L-209.949 40.1376L-209.949 -33.9348L-135.326 -33.9347ZM-135.326 -109.007V-34.9347L-209.949 -34.9348V-109.007L-135.326 -109.007ZM-210.949 -109.007L-285.572 -109.007V-34.9348L-210.949 -34.9348V-109.007ZM-210.949 -33.9348L-285.572 -33.9348L-285.572 40.1376L-210.949 40.1376L-210.949 -33.9348ZM-210.949 41.1376L-285.572 41.1376V115.21L-210.949 115.21V41.1376ZM-210.949 116.21L-285.572 116.21V190.283H-210.949L-210.949 116.21ZM-210.949 191.283H-285.572V265.355H-210.949V191.283ZM-210.949 266.355H-285.572L-285.572 340.428H-210.949L-210.949 266.355ZM-210.949 341.428H-285.572V415.5H-210.949V341.428ZM-210.949 416.5H-285.572V490.572H-210.949V416.5ZM-210.949 491.572H-285.572L-285.572 565.645H-210.949L-210.949 491.572ZM-210.949 566.645H-285.572L-285.572 640.717H-210.949L-210.949 566.645ZM-210.949 641.717H-285.572V715.79H-210.949V641.717ZM-210.949 716.79H-285.572V790.862H-210.949V716.79ZM-210.949 791.862H-285.572L-285.572 865.935H-210.949L-210.949 791.862ZM-210.949 866.935H-285.572V941.007H-210.949V866.935ZM-286.572 866.935V941.007H-361.195L-361.195 866.935H-286.572ZM-286.572 791.862L-286.572 865.935H-361.195V791.862H-286.572ZM-286.572 716.79V790.862H-361.195L-361.195 716.79H-286.572ZM-286.572 641.717V715.79H-361.195V641.717H-286.572ZM-286.572 566.645L-286.572 640.717H-361.195L-361.195 566.645H-286.572ZM-286.572 491.572L-286.572 565.645H-361.195L-361.195 491.572H-286.572ZM-286.572 416.5V490.572H-361.195L-361.195 416.5H-286.572ZM-286.572 341.428V415.5H-361.195L-361.195 341.428L-286.572 341.428ZM-286.572 266.355L-286.572 340.428L-361.195 340.428V266.355L-286.572 266.355ZM-286.572 191.283V265.355L-361.195 265.355L-361.195 191.283L-286.572 191.283ZM-286.572 116.21V190.283L-361.195 190.283V116.21L-286.572 116.21ZM-286.572 41.1376V115.21L-361.195 115.21L-361.195 41.1376L-286.572 41.1376ZM-286.572 -33.9348L-286.572 40.1376L-361.195 40.1376V-33.9348L-286.572 -33.9348ZM-286.572 -109.007V-34.9348L-361.195 -34.9348L-361.195 -109.007L-286.572 -109.007Z" fill="url(#paint1_radial_2_1137)"/>
<circle cx="207.5" cy="77.5" r="37.5" fill="#F2F7FF"/>
<mask id="mask0_2_1137" style="mask-type:alpha" maskUnits="userSpaceOnUse" x="-57" y="42" width="74" height="146">
<rect width="146" height="73.8264" transform="matrix(-4.37114e-08 1 1 4.37114e-08 -57 42)" fill="#FFF6DE"/>
</mask>
<g mask="url(#mask0_2_1137)">
<circle cx="73" cy="73" r="73" transform="matrix(-4.37114e-08 1 1 4.37114e-08 -129.725 42)" fill="#FFF6DE"/>
</g>
<circle cx="1257.5" cy="116.5" r="12.5" fill="#005DF2"/>
</g>
<defs>
<radialGradient id="paint0_radial_2_1137" cx="0" cy="0" r="1" gradientUnits="userSpaceOnUse" gradientTransform="translate(1247.44 212.489) rotate(71.1387) scale(536.945 1127.9)">
<stop stop-color="#DADADA"/>
<stop offset="1" stop-color="#EFEFEF" stop-opacity="0"/>
</radialGradient>
<radialGradient id="paint1_radial_2_1137" cx="0" cy="0" r="1" gradientUnits="userSpaceOnUse" gradientTransform="translate(80.4405 212.489) rotate(71.1387) scale(536.945 1127.9)">
<stop stop-color="#DADADA"/>
<stop offset="1" stop-color="#EFEFEF" stop-opacity="0"/>
</radialGradient>
<clipPath id="clip0_2_1137">
<rect width="1440" height="379" fill="white" transform="translate(-30)"/>
</clipPath>
</defs>
</svg>
